<svg height="512" viewBox="0 0 512 512" width="512" xmlns="http://www.w3.org/2000/svg"><path d="m496 344h-8v-92a20.02 20.02 0 0 0 -20-20h-84v-76a28.031 28.031 0 0 0 -28-28h-264a28.031 28.031 0 0 0 -28 28v100h-36a20.02 20.02 0 0 0 -20 20v88a20.02 20.02 0 0 0 20 20h56a20.02 20.02 0 0 0 20-20v-12h69.75l-4 16h-17.75a8 8 0 0 0 0 16h144a8 8 0 0 0 0-16h-17.75l-4-16h37.75v12a20.02 20.02 0 0 0 20 20h152a20.02 20.02 0 0 0 20-20v-12a8 8 0 0 0 -8-8zm-28-96a4 4 0 0 1 4 4v92h-128v-92a4 4 0 0 1 4-4zm-380 116a4 4 0 0 1 -4 4h-56a4 4 0 0 1 -4-4v-4h64zm0-20h-64v-48h64zm0-64h-64v-4a4 4 0 0 1 4-4h56a4 4 0 0 1 4 4zm-4-24h-4v-100a12.01 12.01 0 0 1 12-12h264a12.01 12.01 0 0 1 12 12v76h-20a20.02 20.02 0 0 0 -20 20v52h-224v-28a20.02 20.02 0 0 0 -20-20zm102.25 112 4-16h67.5l4 16zm-82.25-32v-16h224v16zm384 28a4 4 0 0 1 -4 4h-152a4 4 0 0 1 -4-4v-4h160z"/></svg>