<svg height="512" width="512" xmlns="http://www.w3.org/2000/svg"><path d="M371.96 47.791C340.612 16.663 299.015-.278 254.814.003c-37.233.263-73.697 13.445-102.675 37.119-3.208 2.621-3.684 7.345-1.063 10.553s7.346 3.684 10.553 1.063c26.337-21.516 59.468-33.497 93.29-33.735 40.167-.334 77.981 15.141 106.471 43.432 28.494 28.293 44.186 65.988 44.186 106.141 0 20.547-4.089 40.449-12.154 59.152a7.5 7.5 0 0013.774 5.94c8.878-20.59 13.379-42.49 13.379-65.092.002-44.179-17.264-85.654-48.615-116.785z"/><path d="M389.409 247.858a7.5 7.5 0 00-10.438 1.885 151.534 151.534 0 01-3.654 5.038c-23.898 31.551-37.059 71.345-37.059 112.051a6.758 6.758 0 01-6.75 6.75h-43.211V255.42c0-15.533 3.496-31.173 10.108-45.229l39.048-82.998a7.5 7.5 0 00-13.573-6.385l-10.465 22.244c-.075-.049-.145-.103-.222-.149-35.277-21.166-79.107-21.166-114.385 0-.077.046-.147.1-.222.149l-10.465-22.244a7.501 7.501 0 00-13.574 6.385l39.048 82.998c6.613 14.056 10.108 29.696 10.108 45.229v118.162h-43.211a6.757 6.757 0 01-6.749-6.75v-1.372c0-40.124-13.01-79.233-36.634-110.122-20.517-26.827-31.122-58.919-30.67-92.807.461-34.627 13.168-68.291 35.778-94.791a7.502 7.502 0 00-.837-10.574 7.502 7.502 0 00-10.574.837C105.928 87.161 91.948 124.212 91.44 162.33c-.497 37.283 11.175 72.595 33.754 102.119 21.635 28.288 33.549 64.16 33.549 101.009v1.372c0 10.404 7.345 19.121 17.121 21.249a29.753 29.753 0 00-4.299 15.44c0 8.928 3.932 16.95 10.15 22.44-6.218 5.49-10.15 13.512-10.15 22.44 0 16.284 13.07 29.564 29.269 29.922l3.838 19.192c1.679 8.393 9.11 14.484 17.669 14.484h67.318c8.559 0 15.99-6.092 17.669-14.485l3.838-19.191c16.199-.359 29.269-13.638 29.269-29.922 0-8.928-3.932-16.95-10.151-22.44 6.218-5.49 10.151-13.512 10.151-22.44a29.753 29.753 0 00-4.299-15.44c9.776-2.128 17.121-10.845 17.121-21.249 0-37.457 12.081-74.034 34.016-102.995a165.532 165.532 0 004.02-5.542 7.498 7.498 0 00-1.884-10.435zm-184.504-91.374a7.491 7.491 0 001.62-.72c30.517-18.311 68.433-18.311 98.949 0a7.445 7.445 0 001.623.715l-22.265 47.326c-7.546 16.041-11.535 33.889-11.535 51.615v3.746h-34.594v-3.746c0-17.726-3.989-35.574-11.535-51.615zm33.798 117.682h34.594v99.416h-34.594zM289.659 497h-67.318a3.026 3.026 0 01-2.96-2.426l-3.247-16.233h79.731l-3.246 16.232a3.027 3.027 0 01-2.96 2.427zm35.776-48.599c0 8.238-6.702 14.939-14.939 14.939H201.504c-8.238 0-14.939-6.702-14.939-14.939 0-8.238 6.702-14.94 14.939-14.94h108.992c8.238 0 14.939 6.702 14.939 14.94zm-123.931-29.94c-8.238 0-14.939-6.702-14.939-14.94s6.702-14.939 14.939-14.939h108.992c8.238 0 14.939 6.702 14.939 14.939 0 8.238-6.702 14.94-14.939 14.94z"/></svg>