<svg xmlns="http://www.w3.org/2000/svg" width="200" height="200" viewBox="0 0 397.2 397.2"><g xmlns="http://www.w3.org/2000/svg" fill="#fff"><path d="M241.4 188.3l-29-16.8-28.8-16.6c-2.8-1.6-6-2-8.8-1.2-2.8.8-5.4 2.6-7 5.4-.6.8-.8 1.8-1.2 2.8-.2.6-.2 1.4-.4 2.2v68.8c0 3.2 1.4 6.2 3.4 8.2 2.2 2.2 5 3.4 8.2 3.4 1.8 0 5.6-1.6 6.6-2.2l28.4-16.4h.2l.2-.2 29.4-17c2.8-1.6 4.6-4.2 5.4-7.2.2-.6.2-1.4.2-2.2 0-6.6-6.8-11-6.8-11zm-4 11.8l-29 16.8c-.2 0-.4.2-.4.2l-28.4 16.4c-.2.2-1.2.6-1.6.6s-.8-.2-1.2-.4c-.2-.2-.4-.8-.4-1.2v-68.2s0-.2.2-.2c0 0 .2-.2.2-.4.2-.2.6-.4.8-.6h1c.2.2.4.2.6.4l28.4 16.4c.2.2.4.2.4.2h.2l29 16.8c.4.2 1.2.8 1.2 1.4 0 .8-.6 1.6-1 1.8z" data-original="#1b1b1b"/><path d="M268.8 128.5c-19.2-19.4-44.6-29.2-70-29.2s-50.8 9.6-70.2 29c-19.4 19.6-29.2 45-29.2 70.4s9.6 50.8 29 70.2 44.8 29 70.2 29c25.4 0 50.8-9.6 70.2-29 19.4-19.4 29-44.8 29-70.2s-9.6-50.8-29-70.2zm-7 133.2c-17.4 17.4-40.2 26.2-63 26.2-22.8 0-45.6-8.8-63-26.2-17.6-17.4-26.2-40.2-26.2-63 0-22.8 8.8-45.6 26.2-63s40.2-26.2 63-26.2c22.8 0 45.6 8.8 63 26.2s26.2 40.2 26.2 63c0 22.8-8.6 45.6-26.2 63z" data-original="#1b1b1b"/></g></svg>