<svg height="512" width="512" xmlns="http://www.w3.org/2000/svg"><path d="M496 344h-8v-92a20.02 20.02 0 00-20-20h-84v-76a28.031 28.031 0 00-28-28H92a28.031 28.031 0 00-28 28v100H28a20.02 20.02 0 00-20 20v88a20.02 20.02 0 0020 20h56a20.02 20.02 0 0020-20v-12h69.75l-4 16H152a8 8 0 000 16h144a8 8 0 000-16h-17.75l-4-16H312v12a20.02 20.02 0 0020 20h152a20.02 20.02 0 0020-20v-12a8 8 0 00-8-8zm-28-96a4 4 0 014 4v92H344v-92a4 4 0 014-4zM88 364a4 4 0 01-4 4H28a4 4 0 01-4-4v-4h64zm0-20H24v-48h64zm0-64H24v-4a4 4 0 014-4h56a4 4 0 014 4zm-4-24h-4V156a12.01 12.01 0 0112-12h264a12.01 12.01 0 0112 12v76h-20a20.02 20.02 0 00-20 20v52H104v-28a20.02 20.02 0 00-20-20zm102.25 112l4-16h67.5l4 16zM104 336v-16h224v16zm384 28a4 4 0 01-4 4H332a4 4 0 01-4-4v-4h160z"/></svg>